# xmcd
#
# Track frame offsets: 
#        150
#        29140
#        64737
#        96300
#        126897
#        150087
#        179687
#        213967
#        244452
#        268238
#        292732
#
# Disc length: 4169 seconds
#
# Revision: 0
# Processed by: cddbd v1.5.2PL0 Copyright (c) Steve Scherf et al.
# Submitted via: ExactAudioCopyFreeDBPlugin 1.0
#
DISCID=a410470b
DTITLE=Various Artist - Tommy Boy Story Vol 1 [CD1]
DYEAR=2006
DGENRE=Rap
TTITLE0=Afrika Bambaataa and The Soul Sonic Force - Planet Rock (12" V
TTITLE0=ocal Version)
TTITLE1=Planet Patrol - Pay At Your Own Risk (12" Vocal Version)
TTITLE2=Afrika Bambaataa and The Soul Sonic Force - Looking For The Pe
TTITLE2=rfect Beat (12" Vocal Version)
TTITLE3=Planet Patrol - Cheap Thrills (12" Vocal Version)
TTITLE4=Club Nouveau - Why You Treat Me So Bad (LP Version)
TTITLE5=G.L.O.B.E And Whiz Kid - Play That Beat Mr DJ (12" Full Length
TTITLE5=Version)
TTITLE6=Planet Patrol - I Didnt Know I Loved You (Till I Saw You Rock 
TTITLE6=And Roll) (12" Vocal Version)
TTITLE7=Afrika Bambaataa and The Soul Sonic Force - Renegades Of Funk 
TTITLE7=(12" Vocal Version)
TTITLE8=Jonzun Crew - Pack Jam (12" Remix)
TTITLE9=Tommy Boy Megamix (12" Brooklyn Mix)
TTITLE10=808 State - Pacific 0101 (Remix Edit Version)
EXTD=
EXTT0=
EXTT1=
EXTT2=
EXTT3=
EXTT4=
EXTT5=
EXTT6=
EXTT7=
EXTT8=
EXTT9=
EXTT10=
PLAYORDER=
